<svg xmlns="http://www.w3.org/2000/svg" xmlns:xlink="http://www.w3.org/1999/xlink" version="1.1" class="marks" width="886" height="438" viewBox="0 0 886 438"><rect width="886" height="438" fill="white"/><g fill="none" stroke-miterlimit="4" transform="translate(51,41)"><g class="mark-group role-frame root" role="graphics-object" aria-roledescription="group mark container"><g transform="translate(0,0)"><path class="background" aria-hidden="true" d="M0.5,0.5h700v360h-700Z" stroke="#ddd"/><g><g class="mark-group role-axis" aria-hidden="true"><g transform="translate(0.5,360.5)"><path class="background" aria-hidden="true" d="M0,0h0v0h0Z" pointer-events="none"/><g><g class="mark-rule role-axis-grid" pointer-events="none"><line transform="translate(0,-360)" x2="0" y2="360" stroke="#ddd" stroke-width="1" opacity="1"/><line transform="translate(35,-360)" x2="0" y2="360" stroke="#ddd" stroke-width="1" opacity="1"/><line transform="translate(70,-360)" x2="0" y2="360" stroke="#ddd" stroke-width="1" opacity="1"/><line transform="translate(105,-360)" x2="0" y2="360" stroke="#ddd" stroke-width="1" opacity="1"/><line transform="translate(140,-360)" x2="0" y2="360" stroke="#ddd" stroke-width="1" opacity="1"/><line transform="translate(175,-360)" x2="0" y2="360" stroke="#ddd" stroke-width="1" opacity="1"/><line transform="translate(210,-360)" x2="0" y2="360" stroke="#ddd" stroke-width="1" opacity="1"/><line transform="translate(245,-360)" x2="0" y2="360" stroke="#ddd" stroke-width="1" opacity="1"/><line transform="translate(280,-360)" x2="0" y2="360" stroke="#ddd" stroke-width="1" opacity="1"/><line transform="translate(315,-360)" x2="0" y2="360" stroke="#ddd" stroke-width="1" opacity="1"/><line transform="translate(350,-360)" x2="0" y2="360" stroke="#ddd" stroke-width="1" opacity="1"/><line transform="translate(385,-360)" x2="0" y2="360" stroke="#ddd" stroke-width="1" opacity="1"/><line transform="translate(420,-360)" x2="0" y2="360" stroke="#ddd" stroke-width="1" opacity="1"/><line transform="translate(455,-360)" x2="0" y2="360" stroke="#ddd" stroke-width="1" opacity="1"/><line transform="translate(490,-360)" x2="0" y2="360" stroke="#ddd" stroke-width="1" opacity="1"/><line transform="translate(525,-360)" x2="0" y2="360" stroke="#ddd" stroke-width="1" opacity="1"/><line transform="translate(560,-360)" x2="0" y2="360" stroke="#ddd" stroke-width="1" opacity="1"/><line transform="translate(595,-360)" x2="0" y2="360" stroke="#ddd" stroke-width="1" opacity="1"/><line transform="translate(630,-360)" x2="0" y2="360" stroke="#ddd" stroke-width="1" opacity="1"/><line transform="translate(665,-360)" x2="0" y2="360" stroke="#ddd" stroke-width="1" opacity="1"/><line transform="translate(700,-360)" x2="0" y2="360" stroke="#ddd" stroke-width="1" opacity="1"/></g></g><path class="foreground" aria-hidden="true" d="" pointer-events="none" display="none"/></g></g><g class="mark-group role-axis" aria-hidden="true"><g transform="translate(0.5,0.5)"><path class="background" aria-hidden="true" d="M0,0h0v0h0Z" pointer-events="none"/><g><g class="mark-rule role-axis-grid" pointer-events="none"><line transform="translate(0,332)" x2="700" y2="0" stroke="#ddd" stroke-width="1" opacity="1"/><line transform="translate(0,277)" x2="700" y2="0" stroke="#ddd" stroke-width="1" opacity="1"/><line transform="translate(0,222)" x2="700" y2="0" stroke="#ddd" stroke-width="1" opacity="1"/><line transform="translate(0,166)" x2="700" y2="0" stroke="#ddd" stroke-width="1" opacity="1"/><line transform="translate(0,111)" x2="700" y2="0" stroke="#ddd" stroke-width="1" opacity="1"/><line transform="translate(0,55)" x2="700" y2="0" stroke="#ddd" stroke-width="1" opacity="1"/><line transform="translate(0,0)" x2="700" y2="0" stroke="#ddd" stroke-width="1" opacity="1"/></g></g><path class="foreground" aria-hidden="true" d="" pointer-events="none" display="none"/></g></g><g class="mark-group role-axis" role="graphics-symbol" aria-roledescription="axis" aria-label="X-axis titled 'Reference-node reduction (%)' for a linear scale with values from 0 to 100"><g transform="translate(0.5,360.5)"><path class="background" aria-hidden="true" d="M0,0h0v0h0Z" pointer-events="none"/><g><g class="mark-rule role-axis-tick" pointer-events="none"><line transform="translate(0,0)" x2="0" y2="5" stroke="#888" stroke-width="1" opacity="1"/><line transform="translate(35,0)" x2="0" y2="5" stroke="#888" stroke-width="1" opacity="1"/><line transform="translate(70,0)" x2="0" y2="5" stroke="#888" stroke-width="1" opacity="1"/><line transform="translate(105,0)" x2="0" y2="5" stroke="#888" stroke-width="1" opacity="1"/><line transform="translate(140,0)" x2="0" y2="5" stroke="#888" stroke-width="1" opacity="1"/><line transform="translate(175,0)" x2="0" y2="5" stroke="#888" stroke-width="1" opacity="1"/><line transform="translate(210,0)" x2="0" y2="5" stroke="#888" stroke-width="1" opacity="1"/><line transform="translate(245,0)" x2="0" y2="5" stroke="#888" stroke-width="1" opacity="1"/><line transform="translate(280,0)" x2="0" y2="5" stroke="#888" stroke-width="1" opacity="1"/><line transform="translate(315,0)" x2="0" y2="5" stroke="#888" stroke-width="1" opacity="1"/><line transform="translate(350,0)" x2="0" y2="5" stroke="#888" stroke-width="1" opacity="1"/><line transform="translate(385,0)" x2="0" y2="5" stroke="#888" stroke-width="1" opacity="1"/><line transform="translate(420,0)" x2="0" y2="5" stroke="#888" stroke-width="1" opacity="1"/><line transform="translate(455,0)" x2="0" y2="5" stroke="#888" stroke-width="1" opacity="1"/><line transform="translate(490,0)" x2="0" y2="5" stroke="#888" stroke-width="1" opacity="1"/><line transform="translate(525,0)" x2="0" y2="5" stroke="#888" stroke-width="1" opacity="1"/><line transform="translate(560,0)" x2="0" y2="5" stroke="#888" stroke-width="1" opacity="1"/><line transform="translate(595,0)" x2="0" y2="5" stroke="#888" stroke-width="1" opacity="1"/><line transform="translate(630,0)" x2="0" y2="5" stroke="#888" stroke-width="1" opacity="1"/><line transform="translate(665,0)" x2="0" y2="5" stroke="#888" stroke-width="1" opacity="1"/><line transform="translate(700,0)" x2="0" y2="5" stroke="#888" stroke-width="1" opacity="1"/></g><g class="mark-text role-axis-label" pointer-events="none"><text text-anchor="start" transform="translate(0,15)" font-family="sans-serif" font-size="10px" fill="#000" opacity="1">0</text><text text-anchor="middle" transform="translate(35,15)" font-family="sans-serif" font-size="10px" fill="#000" opacity="1">5</text><text text-anchor="middle" transform="translate(70,15)" font-family="sans-serif" font-size="10px" fill="#000" opacity="1">10</text><text text-anchor="middle" transform="translate(105,15)" font-family="sans-serif" font-size="10px" fill="#000" opacity="1">15</text><text text-anchor="middle" transform="translate(140,15)" font-family="sans-serif" font-size="10px" fill="#000" opacity="1">20</text><text text-anchor="middle" transform="translate(175,15)" font-family="sans-serif" font-size="10px" fill="#000" opacity="1">25</text><text text-anchor="middle" transform="translate(210,15)" font-family="sans-serif" font-size="10px" fill="#000" opacity="1">30</text><text text-anchor="middle" transform="translate(244.99999999999997,15)" font-family="sans-serif" font-size="10px" fill="#000" opacity="1">35</text><text text-anchor="middle" transform="translate(280,15)" font-family="sans-serif" font-size="10px" fill="#000" opacity="1">40</text><text text-anchor="middle" transform="translate(315,15)" font-family="sans-serif" font-size="10px" fill="#000" opacity="1">45</text><text text-anchor="middle" transform="translate(350,15)" font-family="sans-serif" font-size="10px" fill="#000" opacity="1">50</text><text text-anchor="middle" transform="translate(385.00000000000006,15)" font-family="sans-serif" font-size="10px" fill="#000" opacity="1">55</text><text text-anchor="middle" transform="translate(420,15)" font-family="sans-serif" font-size="10px" fill="#000" opacity="1">60</text><text text-anchor="middle" transform="translate(455,15)" font-family="sans-serif" font-size="10px" fill="#000" opacity="1">65</text><text text-anchor="middle" transform="translate(489.99999999999994,15)" font-family="sans-serif" font-size="10px" fill="#000" opacity="1">70</text><text text-anchor="middle" transform="translate(525,15)" font-family="sans-serif" font-size="10px" fill="#000" opacity="1">75</text><text text-anchor="middle" transform="translate(560,15)" font-family="sans-serif" font-size="10px" fill="#000" opacity="1">80</text><text text-anchor="middle" transform="translate(595,15)" font-family="sans-serif" font-size="10px" fill="#000" opacity="1">85</text><text text-anchor="middle" transform="translate(630,15)" font-family="sans-serif" font-size="10px" fill="#000" opacity="1">90</text><text text-anchor="middle" transform="translate(665,15)" font-family="sans-serif" font-size="10px" fill="#000" opacity="1">95</text><text text-anchor="end" transform="translate(700,15)" font-family="sans-serif" font-size="10px" fill="#000" opacity="1">100</text></g><g class="mark-rule role-axis-domain" pointer-events="none"><line transform="translate(0,0)" x2="700" y2="0" stroke="#888" stroke-width="1" opacity="1"/></g><g class="mark-text role-axis-title" pointer-events="none"><text text-anchor="middle" transform="translate(350,30)" font-family="sans-serif" font-size="11px" font-weight="bold" fill="#000" opacity="1">Reference-node reduction (%)</text></g></g><path class="foreground" aria-hidden="true" d="" pointer-events="none" display="none"/></g></g><g class="mark-group role-axis" role="graphics-symbol" aria-roledescription="axis" aria-label="Y-axis titled 'Retained-heap reduction (%)' for a linear scale with values from −30 to 100"><g transform="translate(0.5,0.5)"><path class="background" aria-hidden="true" d="M0,0h0v0h0Z" pointer-events="none"/><g><g class="mark-rule role-axis-tick" pointer-events="none"><line transform="translate(0,332)" x2="-5" y2="0" stroke="#888" stroke-width="1" opacity="1"/><line transform="translate(0,277)" x2="-5" y2="0" stroke="#888" stroke-width="1" opacity="1"/><line transform="translate(0,222)" x2="-5" y2="0" stroke="#888" stroke-width="1" opacity="1"/><line transform="translate(0,166)" x2="-5" y2="0" stroke="#888" stroke-width="1" opacity="1"/><line transform="translate(0,111)" x2="-5" y2="0" stroke="#888" stroke-width="1" opacity="1"/><line transform="translate(0,55)" x2="-5" y2="0" stroke="#888" stroke-width="1" opacity="1"/><line transform="translate(0,0)" x2="-5" y2="0" stroke="#888" stroke-width="1" opacity="1"/></g><g class="mark-text role-axis-label" pointer-events="none"><text text-anchor="end" transform="translate(-7,335.3076923076923)" font-family="sans-serif" font-size="10px" fill="#000" opacity="1">−20</text><text text-anchor="end" transform="translate(-7,279.9230769230769)" font-family="sans-serif" font-size="10px" fill="#000" opacity="1">0</text><text text-anchor="end" transform="translate(-7,224.53846153846155)" font-family="sans-serif" font-size="10px" fill="#000" opacity="1">20</text><text text-anchor="end" transform="translate(-7,169.15384615384616)" font-family="sans-serif" font-size="10px" fill="#000" opacity="1">40</text><text text-anchor="end" transform="translate(-7,113.76923076923077)" font-family="sans-serif" font-size="10px" fill="#000" opacity="1">60</text><text text-anchor="end" transform="translate(-7,58.38461538461539)" font-family="sans-serif" font-size="10px" fill="#000" opacity="1">80</text><text text-anchor="end" transform="translate(-7,3)" font-family="sans-serif" font-size="10px" fill="#000" opacity="1">100</text></g><g class="mark-rule role-axis-domain" pointer-events="none"><line transform="translate(0,360)" x2="0" y2="-360" stroke="#888" stroke-width="1" opacity="1"/></g><g class="mark-text role-axis-title" pointer-events="none"><text text-anchor="middle" transform="translate(-35,180) rotate(-90) translate(0,-2)" font-family="sans-serif" font-size="11px" font-weight="bold" fill="#000" opacity="1">Retained-heap reduction (%)</text></g></g><path class="foreground" aria-hidden="true" d="" pointer-events="none" display="none"/></g></g><g class="mark-symbol role-mark marks" role="graphics-object" aria-roledescription="symbol mark container"><path aria-label="Reference-node reduction (%): 98.9015817223; Retained-heap reduction (%): 89.9067357513; family: application" role="graphics-symbol" aria-roledescription="point" transform="translate(692.311072056239,27.950577919489838)" d="M4.743,0A4.743,4.743,0,1,1,-4.743,0A4.743,4.743,0,1,1,4.743,0" fill="#4c78a8" stroke-width="2" opacity="0.7"/><path aria-label="Reference-node reduction (%): 99.6335776149; Retained-heap reduction (%): 82.2535625092; family: application" role="graphics-symbol" aria-roledescription="point" transform="translate(697.4350433044636,49.14398074380445)" d="M4.743,0A4.743,4.743,0,1,1,-4.743,0A4.743,4.743,0,1,1,4.743,0" fill="#4c78a8" stroke-width="2" opacity="0.7"/><path aria-label="Reference-node reduction (%): 99.6002180629; Retained-heap reduction (%): 88.1183330199; family: application" role="graphics-symbol" aria-roledescription="point" transform="translate(697.2015264401235,32.90307779116655)" d="M4.743,0A4.743,4.743,0,1,1,-4.743,0A4.743,4.743,0,1,1,4.743,0" fill="#4c78a8" stroke-width="2" opacity="0.7"/><path aria-label="Reference-node reduction (%): 49.6750812297; Retained-heap reduction (%): 36.5784832451; family: application" role="graphics-symbol" aria-roledescription="point" transform="translate(347.725568607848,175.62881562881563)" d="M4.743,0A4.743,4.743,0,1,1,-4.743,0A4.743,4.743,0,1,1,4.743,0" fill="#4c78a8" stroke-width="2" opacity="0.7"/><path aria-label="Reference-node reduction (%): 44.7488584475; Retained-heap reduction (%): 55.8217537135; family: application" role="graphics-symbol" aria-roledescription="point" transform="translate(313.2420091324201,122.33975894732961)" d="M4.743,0A4.743,4.743,0,1,1,-4.743,0A4.743,4.743,0,1,1,4.743,0" fill="#4c78a8" stroke-width="2" opacity="0.7"/><path aria-label="Reference-node reduction (%): 99.4673768309; Retained-heap reduction (%): 68.1443117978; family: application" role="graphics-symbol" aria-roledescription="point" transform="translate(696.271637816245,88.21575194468454)" d="M4.743,0A4.743,4.743,0,1,1,-4.743,0A4.743,4.743,0,1,1,4.743,0" fill="#4c78a8" stroke-width="2" opacity="0.7"/><path aria-label="Reference-node reduction (%): 99.8003327787; Retained-heap reduction (%): 80.5732484076; family: application" role="graphics-symbol" aria-roledescription="point" transform="translate(698.6023294509151,53.797158255756976)" d="M4.743,0A4.743,4.743,0,1,1,-4.743,0A4.743,4.743,0,1,1,4.743,0" fill="#4c78a8" stroke-width="2" opacity="0.7"/><path aria-label="Reference-node reduction (%): 96.9387755102; Retained-heap reduction (%): 79.3012175754; family: application" role="graphics-symbol" aria-roledescription="point" transform="translate(678.5714285714286,57.31970517571363)" d="M4.743,0A4.743,4.743,0,1,1,-4.743,0A4.743,4.743,0,1,1,4.743,0" fill="#4c78a8" stroke-width="2" opacity="0.7"/><path aria-label="Reference-node reduction (%): 48.7179487179; Retained-heap reduction (%): 17.4850299401; family: application" role="graphics-symbol" aria-roledescription="point" transform="translate(341.025641025641,228.50299401197606)" d="M4.743,0A4.743,4.743,0,1,1,-4.743,0A4.743,4.743,0,1,1,4.743,0" fill="#4c78a8" stroke-width="2" opacity="0.7"/><path aria-label="Reference-node reduction (%): 96.9387755102; Retained-heap reduction (%): 85.5231143552; family: application" role="graphics-symbol" aria-roledescription="point" transform="translate(678.5714285714286,40.089837170129144)" d="M4.743,0A4.743,4.743,0,1,1,-4.743,0A4.743,4.743,0,1,1,4.743,0" fill="#4c78a8" stroke-width="2" opacity="0.7"/><path aria-label="Reference-node reduction (%): 0; Retained-heap reduction (%): −20.0937762994; family: synthetic" role="graphics-symbol" aria-roledescription="point" transform="translate(0,332.56738052153435)" d="M4.743,0A4.743,4.743,0,1,1,-4.743,0A4.743,4.743,0,1,1,4.743,0" fill="#f58518" stroke-width="2" opacity="0.7"/><path aria-label="Reference-node reduction (%): 0; Retained-heap reduction (%): −16.8596911608; family: synthetic" role="graphics-symbol" aria-roledescription="point" transform="translate(0,323.61145244531826)" d="M4.743,0A4.743,4.743,0,1,1,-4.743,0A4.743,4.743,0,1,1,4.743,0" fill="#f58518" stroke-width="2" opacity="0.7"/><path aria-label="Reference-node reduction (%): 0; Retained-heap reduction (%): −14.4314763913; family: synthetic" role="graphics-symbol" aria-roledescription="point" transform="translate(0,316.88716539120213)" d="M4.743,0A4.743,4.743,0,1,1,-4.743,0A4.743,4.743,0,1,1,4.743,0" fill="#f58518" stroke-width="2" opacity="0.7"/><path aria-label="Reference-node reduction (%): 99.9600079984; Retained-heap reduction (%): 83.2000266613; family: synthetic" role="graphics-symbol" aria-roledescription="point" transform="translate(699.7200559888023,46.52300309168933)" d="M4.743,0A4.743,4.743,0,1,1,-4.743,0A4.743,4.743,0,1,1,4.743,0" fill="#f58518" stroke-width="2" opacity="0.7"/><path aria-label="Reference-node reduction (%): 99.97600096; Retained-heap reduction (%): 96.1749848155; family: synthetic" role="graphics-symbol" aria-roledescription="point" transform="translate(699.8320067197312,10.59234974172087)" d="M4.743,0A4.743,4.743,0,1,1,-4.743,0A4.743,4.743,0,1,1,4.743,0" fill="#f58518" stroke-width="2" opacity="0.7"/><path aria-label="Reference-node reduction (%): 99.8400284394; Retained-heap reduction (%): 97.0389474715; family: synthetic" role="graphics-symbol" aria-roledescription="point" transform="translate(698.8801990757198,8.19983777118706)" d="M4.743,0A4.743,4.743,0,1,1,-4.743,0A4.743,4.743,0,1,1,4.743,0" fill="#f58518" stroke-width="2" opacity="0.7"/><path aria-label="Reference-node reduction (%): 54.8845115488; Retained-heap reduction (%): 33.407264662; family: synthetic" role="graphics-symbol" aria-roledescription="point" transform="translate(384.1915808419158,184.41065170512869)" d="M4.743,0A4.743,4.743,0,1,1,-4.743,0A4.743,4.743,0,1,1,4.743,0" fill="#f58518" stroke-width="2" opacity="0.7"/><path aria-label="Reference-node reduction (%): 74.9625037496; Retained-heap reduction (%): 58.9608406356; family: synthetic" role="graphics-symbol" aria-roledescription="point" transform="translate(524.7375262473753,113.64690285535288)" d="M4.743,0A4.743,4.743,0,1,1,-4.743,0A4.743,4.743,0,1,1,4.743,0" fill="#f58518" stroke-width="2" opacity="0.7"/><path aria-label="Reference-node reduction (%): 99.7900209979; Retained-heap reduction (%): 90.5592117224; family: synthetic" role="graphics-symbol" aria-roledescription="point" transform="translate(698.5301469853015,26.14372138424059)" d="M4.743,0A4.743,4.743,0,1,1,-4.743,0A4.743,4.743,0,1,1,4.743,0" fill="#f58518" stroke-width="2" opacity="0.7"/><path aria-label="Reference-node reduction (%): 10; Retained-heap reduction (%): −0.437345502947; family: synthetic" role="graphics-symbol" aria-roledescription="point" transform="translate(70,278.13418754662337)" d="M4.743,0A4.743,4.743,0,1,1,-4.743,0A4.743,4.743,0,1,1,4.743,0" fill="#f58518" stroke-width="2" opacity="0.7"/><path aria-label="Reference-node reduction (%): 99.6007984032; Retained-heap reduction (%): 89.2123629113; family: synthetic" role="graphics-symbol" aria-roledescription="point" transform="translate(697.2055888223553,29.873456553416695)" d="M4.743,0A4.743,4.743,0,1,1,-4.743,0A4.743,4.743,0,1,1,4.743,0" fill="#f58518" stroke-width="2" opacity="0.7"/><path aria-label="Reference-node reduction (%): 99.7502081599; Retained-heap reduction (%): 96.8530839777; family: synthetic" role="graphics-symbol" aria-roledescription="point" transform="translate(698.2514571190675,8.714536677133346)" d="M4.743,0A4.743,4.743,0,1,1,-4.743,0A4.743,4.743,0,1,1,4.743,0" fill="#f58518" stroke-width="2" opacity="0.7"/><path aria-label="Reference-node reduction (%): 99.1008991009; Retained-heap reduction (%): 89.1163255117; family: synthetic" role="graphics-symbol" aria-roledescription="point" transform="translate(693.7062937062936,30.139406275202603)" d="M4.743,0A4.743,4.743,0,1,1,-4.743,0A4.743,4.743,0,1,1,4.743,0" fill="#f58518" stroke-width="2" opacity="0.7"/><path aria-label="Reference-node reduction (%): 99.7866951073; Retained-heap reduction (%): 98.2146391671; family: synthetic" role="graphics-symbol" aria-roledescription="point" transform="translate(698.5068657512331,4.944076152658554)" d="M4.743,0A4.743,4.743,0,1,1,-4.743,0A4.743,4.743,0,1,1,4.743,0" fill="#f58518" stroke-width="2" opacity="0.7"/><path aria-label="Reference-node reduction (%): 98.753117207; Retained-heap reduction (%): 88.939256573; family: synthetic" role="graphics-symbol" aria-roledescription="point" transform="translate(691.2718204488777,30.629751028663076)" d="M4.743,0A4.743,4.743,0,1,1,-4.743,0A4.743,4.743,0,1,1,4.743,0" fill="#f58518" stroke-width="2" opacity="0.7"/><path aria-label="Reference-node reduction (%): 99.5004995005; Retained-heap reduction (%): 92.8441699964; family: synthetic" role="graphics-symbol" aria-roledescription="point" transform="translate(696.5034965034965,19.816144625443584)" d="M4.743,0A4.743,4.743,0,1,1,-4.743,0A4.743,4.743,0,1,1,4.743,0" fill="#f58518" stroke-width="2" opacity="0.7"/><path aria-label="Reference-node reduction (%): 99.7501249375; Retained-heap reduction (%): 94.148646193; family: synthetic" role="graphics-symbol" aria-roledescription="point" transform="translate(698.2508745627186,16.203749004039786)" d="M4.743,0A4.743,4.743,0,1,1,-4.743,0A4.743,4.743,0,1,1,4.743,0" fill="#f58518" stroke-width="2" opacity="0.7"/><path aria-label="Reference-node reduction (%): 99.8750312422; Retained-heap reduction (%): 94.8014177951; family: synthetic" role="graphics-symbol" aria-roledescription="point" transform="translate(699.1252186953261,14.396073798055093)" d="M4.743,0A4.743,4.743,0,1,1,-4.743,0A4.743,4.743,0,1,1,4.743,0" fill="#f58518" stroke-width="2" opacity="0.7"/><path aria-label="Reference-node reduction (%): 99.9500049995; Retained-heap reduction (%): 95.1932516453; family: synthetic" role="graphics-symbol" aria-roledescription="point" transform="translate(699.6500349965004,13.310995443853692)" d="M4.743,0A4.743,4.743,0,1,1,-4.743,0A4.743,4.743,0,1,1,4.743,0" fill="#f58518" stroke-width="2" opacity="0.7"/><path aria-label="Reference-node reduction (%): 99.9750012499; Retained-heap reduction (%): 95.3238914241; family: synthetic" role="graphics-symbol" aria-roledescription="point" transform="translate(699.8250087495625,12.949223748634719)" d="M4.743,0A4.743,4.743,0,1,1,-4.743,0A4.743,4.743,0,1,1,4.743,0" fill="#f58518" stroke-width="2" opacity="0.7"/><path aria-label="Reference-node reduction (%): 99.9875003125; Retained-heap reduction (%): 95.3892166577; family: synthetic" role="graphics-symbol" aria-roledescription="point" transform="translate(699.9125021874453,12.768323101677645)" d="M4.743,0A4.743,4.743,0,1,1,-4.743,0A4.743,4.743,0,1,1,4.743,0" fill="#f58518" stroke-width="2" opacity="0.7"/><path aria-label="Reference-node reduction (%): 5.09490509491; Retained-heap reduction (%): 49.0198693159; family: test-derived" role="graphics-symbol" aria-roledescription="point" transform="translate(35.66433566433567,141.17574650979108)" d="M4.743,0A4.743,4.743,0,1,1,-4.743,0A4.743,4.743,0,1,1,4.743,0" fill="#e45756" stroke-width="2" opacity="0.7"/><path aria-label="Reference-node reduction (%): 85.2647352647; Retained-heap reduction (%): 88.2873271992; family: test-derived" role="graphics-symbol" aria-roledescription="point" transform="translate(596.8531468531469,32.43509390995727)" d="M4.743,0A4.743,4.743,0,1,1,-4.743,0A4.743,4.743,0,1,1,4.743,0" fill="#e45756" stroke-width="2" opacity="0.7"/><path aria-label="Reference-node reduction (%): 0; Retained-heap reduction (%): 46.4995332711; family: test-derived" role="graphics-symbol" aria-roledescription="point" transform="translate(0,148.15513863386911)" d="M4.743,0A4.743,4.743,0,1,1,-4.743,0A4.743,4.743,0,1,1,4.743,0" fill="#e45756" stroke-width="2" opacity="0.7"/><path aria-label="Reference-node reduction (%): 23.3266733267; Retained-heap reduction (%): 57.8921633996; family: test-derived" role="graphics-symbol" aria-roledescription="point" transform="translate(163.28671328671328,116.60631673966782)" d="M4.743,0A4.743,4.743,0,1,1,-4.743,0A4.743,4.743,0,1,1,4.743,0" fill="#e45756" stroke-width="2" opacity="0.7"/><path aria-label="Reference-node reduction (%): 39.6103896104; Retained-heap reduction (%): 65.8012792041; family: test-derived" role="graphics-symbol" aria-roledescription="point" transform="translate(277.2727272727273,94.70414989647468)" d="M4.743,0A4.743,4.743,0,1,1,-4.743,0A4.743,4.743,0,1,1,4.743,0" fill="#e45756" stroke-width="2" opacity="0.7"/><path aria-label="Reference-node reduction (%): 34.5654345654; Retained-heap reduction (%): 63.3998843879; family: test-derived" role="graphics-symbol" aria-roledescription="point" transform="translate(241.95804195804197,101.35416631036712)" d="M4.743,0A4.743,4.743,0,1,1,-4.743,0A4.743,4.743,0,1,1,4.743,0" fill="#e45756" stroke-width="2" opacity="0.7"/><path aria-label="Reference-node reduction (%): 19.6901549225; Retained-heap reduction (%): 42.847282869; family: test-derived" role="graphics-symbol" aria-roledescription="point" transform="translate(137.8310844577711,158.26906282437733)" d="M4.743,0A4.743,4.743,0,1,1,-4.743,0A4.743,4.743,0,1,1,4.743,0" fill="#e45756" stroke-width="2" opacity="0.7"/><path aria-label="Reference-node reduction (%): 60.8891108891; Retained-heap reduction (%): 74.0046042948; family: test-derived" role="graphics-symbol" aria-roledescription="point" transform="translate(426.2237762237762,71.98724964509773)" d="M4.743,0A4.743,4.743,0,1,1,-4.743,0A4.743,4.743,0,1,1,4.743,0" fill="#e45756" stroke-width="2" opacity="0.7"/></g><g class="mark-group role-legend" role="graphics-symbol" aria-roledescription="legend" aria-label="Symbol legend titled 'family' for fill color with 3 values: application, synthetic, test-derived"><g transform="translate(718,0)"><path class="background" aria-hidden="true" d="M0,0h112v53h-112Z" pointer-events="none"/><g><g class="mark-group role-legend-entry"><g transform="translate(0,16)"><path class="background" aria-hidden="true" d="M0,0h0v0h0Z" pointer-events="none"/><g><g class="mark-group role-scope" role="graphics-object" aria-roledescription="group mark container"><g transform="translate(0,0)"><path class="background" aria-hidden="true" d="M0,0h112v11h-112Z" pointer-events="none" opacity="1"/><g><g class="mark-symbol role-legend-symbol" pointer-events="none"><path transform="translate(6,6)" d="M5,0A5,5,0,1,1,-5,0A5,5,0,1,1,5,0" fill="#4c78a8" stroke-width="1.5" opacity="0.7"/></g><g class="mark-text role-legend-label" pointer-events="none"><text text-anchor="start" transform="translate(16,9)" font-family="sans-serif" font-size="10px" fill="#000" opacity="1">application</text></g></g><path class="foreground" aria-hidden="true" d="" pointer-events="none" display="none"/></g><g transform="translate(0,13)"><path class="background" aria-hidden="true" d="M0,0h112v11h-112Z" pointer-events="none" opacity="1"/><g><g class="mark-symbol role-legend-symbol" pointer-events="none"><path transform="translate(6,6)" d="M5,0A5,5,0,1,1,-5,0A5,5,0,1,1,5,0" fill="#f58518" stroke-width="1.5" opacity="0.7"/></g><g class="mark-text role-legend-label" pointer-events="none"><text text-anchor="start" transform="translate(16,9)" font-family="sans-serif" font-size="10px" fill="#000" opacity="1">synthetic</text></g></g><path class="foreground" aria-hidden="true" d="" pointer-events="none" display="none"/></g><g transform="translate(0,26)"><path class="background" aria-hidden="true" d="M0,0h112v11h-112Z" pointer-events="none" opacity="1"/><g><g class="mark-symbol role-legend-symbol" pointer-events="none"><path transform="translate(6,6)" d="M5,0A5,5,0,1,1,-5,0A5,5,0,1,1,5,0" fill="#e45756" stroke-width="1.5" opacity="0.7"/></g><g class="mark-text role-legend-label" pointer-events="none"><text text-anchor="start" transform="translate(16,9)" font-family="sans-serif" font-size="10px" fill="#000" opacity="1">test-derived</text></g></g><path class="foreground" aria-hidden="true" d="" pointer-events="none" display="none"/></g></g></g><path class="foreground" aria-hidden="true" d="" pointer-events="none" display="none"/></g></g><g class="mark-text role-legend-title" pointer-events="none"><text text-anchor="start" transform="translate(0,9)" font-family="sans-serif" font-size="11px" font-weight="bold" fill="#000" opacity="1">family</text></g></g><path class="foreground" aria-hidden="true" d="" pointer-events="none" display="none"/></g></g><g class="mark-group role-title"><g transform="translate(350,-36)"><path class="background" aria-hidden="true" d="M0,0h0v0h0Z" pointer-events="none"/><g><g class="mark-text role-title-text" role="graphics-symbol" aria-roledescription="title" aria-label="Title text 'Structural reduction versus retained heap reduction'" pointer-events="none"><text text-anchor="middle" transform="translate(0,10)" font-family="sans-serif" font-size="13px" font-weight="bold" fill="#000" opacity="1">Structural reduction versus retained heap reduction</text></g><g class="mark-text role-title-subtitle" role="graphics-symbol" aria-roledescription="subtitle" aria-label="Subtitle text 'Node 26, full profile'" pointer-events="none"><text text-anchor="middle" transform="translate(0,25)" font-family="sans-serif" font-size="12px" fill="#000" opacity="1">Node 26, full profile</text></g></g><path class="foreground" aria-hidden="true" d="" pointer-events="none" display="none"/></g></g></g><path class="foreground" aria-hidden="true" d="" display="none"/></g></g></g></svg>
